<?xml version="1.0" encoding="UTF-8"?>
<svg width="126px" height="126px" viewBox="0 0 126 126" version="1.1" xmlns="http://www.w3.org/2000/svg" xmlns:xlink="http://www.w3.org/1999/xlink">
    <!-- Generator: Sketch 53.2 (72643) - https://sketchapp.com -->
    <title>Fill 1</title>
    <desc>Created with Sketch.</desc>
    <g id="Welcome" stroke="none" stroke-width="1" fill="none" fill-rule="evenodd">
        <g id="Homepage" transform="translate(-106.000000, -2666.000000)" fill="#FFFFFF">
            <g id="Group-15" transform="translate(0.000000, 2569.000000)">
                <path d="M194.754414,97 L194.754414,111.471287 L186.545945,111.471287 L186.545945,97 L173.207182,97 L173.207182,111.471287 L164.998713,111.471287 L164.998713,97 L151.659609,97 L151.659609,111.471287 L142.425081,111.471287 L142.425081,97 L129.086319,97 L129.086319,111.471287 L106,111.471287 L106,206.283168 L129.086319,206.283168 L129.086319,223 L142.425081,223 L142.425081,206.283168 L151.659609,206.283168 L151.659609,223 L164.998713,223 L164.998713,206.283168 L173.207182,206.283168 L173.207182,223 L186.545945,223 L186.545945,206.283168 L194.754414,206.283168 L194.754414,223 L208.093176,223 L208.093176,206.283168 L232,206.283168 L232,111.471287 L208.093176,111.471287 L208.093176,97 L194.754414,97 Z M119,190 L218,190 L218,126 L119,126 L119,190 Z" id="Fill-1"></path>
            </g>
        </g>
    </g>
</svg>