<?xml version="1.0" encoding="UTF-8"?>
<svg width="129px" height="134px" viewBox="0 0 129 134" version="1.1" xmlns="http://www.w3.org/2000/svg" xmlns:xlink="http://www.w3.org/1999/xlink">
    <!-- Generator: Sketch 53.2 (72643) - https://sketchapp.com -->
    <title>crypto500</title>
    <desc>Created with Sketch.</desc>
    <g id="Welcome" stroke="none" stroke-width="1" fill="none" fill-rule="evenodd">
        <g id="Homepage" transform="translate(-411.000000, -2662.000000)" fill="#FFFFFF" fill-rule="nonzero">
            <g id="Group-15" transform="translate(0.000000, 2569.000000)">
                <g id="Group-10">
                    <g id="Ikony_3_velke">
                        <g id="crypto500" transform="translate(411.000000, 93.000000)">
                            <polygon id="Path" points="6.55462185 6.72950363 1.31092437 8.03859453 0 2.69313999 8.5210084 0.18404908 13 0.18404908 13 30.1840491 6.55462185 30.1840491"></polygon>
                            <path d="M19,15.7939782 L19,15.7939782 C19,6.99965192 24.4444444,0.18404908 32.5555556,0.18404908 C40.5555556,0.18404908 46,6.88972284 46,15.57412 L46,15.6840491 C46,24.3684462 40.5555556,31.1840491 32.4444444,31.1840491 C24.3333333,31.1840491 19,24.4783753 19,15.7939782 Z M39,15.7939782 L39,15.7939782 C39,10.2975243 36.3333333,6.12021929 32.3333333,6.12021929 C28.3333333,6.12021929 25.7777778,10.0776661 25.7777778,15.57412 L25.7777778,15.6840491 C25.7777778,21.180503 28.4444444,25.2478789 32.4444444,25.2478789 C36.4444444,25.2478789 39,21.180503 39,15.7939782 Z" id="Shape"></path>
                            <path d="M50,15.7939782 L50,15.7939782 C50,6.99965192 55.4444444,0.18404908 63.5555556,0.18404908 C71.5555556,0.18404908 77,6.88972284 77,15.57412 L77,15.6840491 C77,24.3684462 71.5555556,31.1840491 63.4444444,31.1840491 C55.3333333,31.1840491 50,24.4783753 50,15.7939782 Z M70.1111111,15.7939782 L70.1111111,15.7939782 C70.1111111,10.2975243 67.4444444,6.12021929 63.4444444,6.12021929 C59.4444444,6.12021929 56.8888889,10.0776661 56.8888889,15.57412 L56.8888889,15.6840491 C56.8888889,21.180503 59.5555556,25.2478789 63.5555556,25.2478789 C67.5555556,25.2478789 70.1111111,21.180503 70.1111111,15.7939782 Z" id="Shape"></path>
                            <polygon id="Path" points="86.5546218 6.72950363 81.3109244 8.03859453 80 2.69313999 88.5210084 0.18404908 93 0.18404908 93 30.1840491 86.5546218 30.1840491"></polygon>
                            <path d="M99,15.7939782 L99,15.7939782 C99,6.99965192 104.444444,0.18404908 112.555556,0.18404908 C120.555556,0.18404908 126,6.88972284 126,15.57412 L126,15.6840491 C126,24.3684462 120.555556,31.1840491 112.444444,31.1840491 C104.333333,31.1840491 99,24.4783753 99,15.7939782 Z M119.111111,15.7939782 L119.111111,15.7939782 C119.111111,10.2975243 116.444444,6.12021929 112.444444,6.12021929 C108.444444,6.12021929 105.888889,10.0776661 105.888889,15.57412 L105.888889,15.6840491 C105.888889,21.180503 108.555556,25.2478789 112.555556,25.2478789 C116.555556,25.2478789 119.111111,21.180503 119.111111,15.7939782 Z" id="Shape"></path>
                            <path d="M1,66.7939782 L1,66.7939782 C1,57.9996519 6.44444444,51.1840491 14.5555556,51.1840491 C22.5555556,51.1840491 28,57.8897228 28,66.57412 L28,66.6840491 C28,75.3684462 22.5555556,82.1840491 14.4444444,82.1840491 C6.33333333,82.1840491 1,75.4783753 1,66.7939782 Z M21.1111111,66.7939782 L21.1111111,66.7939782 C21.1111111,61.2975243 18.4444444,57.1202193 14.4444444,57.1202193 C10.4444444,57.1202193 7.88888889,61.0776661 7.88888889,66.57412 L7.88888889,66.6840491 C7.88888889,72.180503 10.5555556,76.2478789 14.5555556,76.2478789 C18.5555556,76.2478789 21.1111111,72.180503 21.1111111,66.7939782 Z" id="Shape"></path>
                            <path d="M32,66.7939782 L32,66.7939782 C32,57.9996519 37.4444444,51.1840491 45.5555556,51.1840491 C53.5555556,51.1840491 59,57.8897228 59,66.57412 L59,66.6840491 C59,75.3684462 53.5555556,82.1840491 45.4444444,82.1840491 C37.3333333,82.1840491 32,75.4783753 32,66.7939782 Z M52.1111111,66.7939782 L52.1111111,66.7939782 C52.1111111,61.2975243 49.4444444,57.1202193 45.4444444,57.1202193 C41.4444444,57.1202193 38.8888889,61.0776661 38.8888889,66.57412 L38.8888889,66.6840491 C38.8888889,72.180503 41.5555556,76.2478789 45.5555556,76.2478789 C49.5555556,76.2478789 52.1111111,72.180503 52.1111111,66.7939782 Z" id="Shape"></path>
                            <polygon id="Path" points="68.5546218 57.7295036 63.3109244 59.0385945 62 53.69314 70.5210084 51.1840491 75 51.1840491 75 81.1840491 68.5546218 81.1840491"></polygon>
                            <path d="M81,66.7939782 L81,66.7939782 C81,57.9996519 86.4444444,51.1840491 94.5555556,51.1840491 C102.555556,51.1840491 108,57.8897228 108,66.57412 L108,66.6840491 C108,75.3684462 102.555556,82.1840491 94.4444444,82.1840491 C86.3333333,82.1840491 81,75.4783753 81,66.7939782 Z M101.111111,66.7939782 L101.111111,66.7939782 C101.111111,61.2975243 98.4444444,57.1202193 94.4444444,57.1202193 C90.4444444,57.1202193 87.8888889,61.0776661 87.8888889,66.57412 L87.8888889,66.6840491 C87.8888889,72.180503 90.5555556,76.2478789 94.5555556,76.2478789 C98.5555556,76.2478789 101.111111,72.180503 101.111111,66.7939782 Z" id="Shape"></path>
                            <polygon id="Path" points="117.554622 57.7295036 112.310924 59.0385945 111 53.69314 119.521008 51.1840491 124 51.1840491 124 81.1840491 117.554622 81.1840491"></polygon>
                            <polygon id="Path" points="6.55462185 108.729504 1.31092437 110.038595 0 104.69314 8.5210084 102.184049 13 102.184049 13 132.184049 6.55462185 132.184049"></polygon>
                            <polygon id="Path" points="24.5546218 108.729504 19.3109244 110.038595 18 104.69314 26.5210084 102.184049 31 102.184049 31 132.184049 24.5546218 132.184049 24.5546218 108.729504"></polygon>
                            <path d="M37,117.793978 L37,117.793978 C37,108.999652 42.4444444,102.184049 50.5555556,102.184049 C58.5555556,102.184049 64,108.889723 64,117.57412 L64,117.684049 C64,126.368446 58.5555556,133.184049 50.4444444,133.184049 C42.3333333,133.184049 37,126.478375 37,117.793978 Z M57.1111111,117.793978 L57.1111111,117.793978 C57.1111111,112.297524 54.4444444,108.120219 50.4444444,108.120219 C46.4444444,108.120219 43.8888889,112.077666 43.8888889,117.57412 L43.8888889,117.684049 C43.8888889,123.180503 46.5555556,127.247879 50.5555556,127.247879 C54.5555556,127.247879 57.1111111,123.180503 57.1111111,117.793978 Z" id="Shape"></path>
                            <polygon id="Path" points="73.5546218 108.729504 68.3109244 110.038595 67 104.69314 75.5210084 102.184049 80 102.184049 80 132.184049 73.5546218 132.184049"></polygon>
                            <path d="M86,117.793978 L86,117.793978 C86,108.999652 91.4444444,102.184049 99.5555556,102.184049 C107.555556,102.184049 113,108.889723 113,117.57412 L113,117.684049 C113,126.368446 107.555556,133.184049 99.4444444,133.184049 C91.2222222,133.184049 86,126.478375 86,117.793978 Z M106,117.793978 L106,117.793978 C106,112.297524 103.333333,108.120219 99.3333333,108.120219 C95.3333333,108.120219 92.7777778,112.077666 92.7777778,117.57412 L92.7777778,117.684049 C92.7777778,123.180503 95.4444444,127.247879 99.4444444,127.247879 C103.444444,127.247879 106,123.180503 106,117.793978 Z" id="Shape"></path>
                            <polygon id="Path" points="122.554622 108.729504 117.310924 110.038595 116 104.69314 124.521008 102.184049 129 102.184049 129 132.184049 122.554622 132.184049"></polygon>
                        </g>
                    </g>
                </g>
            </g>
        </g>
    </g>
</svg>