<?xml version="1.0" encoding="utf-8"?>
<!-- Generator: Adobe Illustrator 23.0.6, SVG Export Plug-In . SVG Version: 6.00 Build 0)  -->
<svg version="1.1" id="Vrstva_1" xmlns="http://www.w3.org/2000/svg" xmlns:xlink="http://www.w3.org/1999/xlink" x="0px" y="0px"
	 viewBox="0 0 243.8 36" style="enable-background:new 0 0 243.8 36;" xml:space="preserve">
<style type="text/css">
	.st0{fill:url(#SVGID_1_);}
	.st1{enable-background:new    ;}
	.st2{fill:#646464;}
	.st3{fill:none;stroke:#000000;}
</style>
<title>_assets_rgb</title>
<linearGradient id="SVGID_1_" gradientUnits="userSpaceOnUse" x1="38.15" y1="27.3148" x2="196.01" y2="27.3148" gradientTransform="matrix(1 0 0 -1 0 35.8898)">
	<stop  offset="0" style="stop-color:#00A2E2;stop-opacity:0.65"/>
	<stop  offset="1" style="stop-color:#00A2E2"/>
</linearGradient>
<rect x="38.2" y="0.4" class="st0" width="157.9" height="16.3"/>
<g class="st1">
	<path d="M100.4,27.3h0.6v0.9h-0.6v1.2h-1.1v-1.2h-2.3l-0.1-0.7l2.4-3.7h1.1V27.3z M98,27.3h1.3v-2l-0.1,0.1L98,27.3z"/>
	<path d="M101.8,26.6l0.3-2.9h3.2v0.9h-2.3l-0.1,1.2c0.3-0.1,0.6-0.2,0.9-0.2c0.5,0,1,0.2,1.3,0.5s0.5,0.8,0.5,1.4
		c0,0.4-0.1,0.7-0.2,1s-0.4,0.5-0.7,0.7s-0.6,0.2-1,0.2c-0.3,0-0.7-0.1-1-0.2s-0.5-0.3-0.7-0.6s-0.3-0.5-0.3-0.9h1.1
		c0,0.2,0.1,0.4,0.2,0.6s0.3,0.2,0.6,0.2c0.3,0,0.5-0.1,0.6-0.3s0.2-0.4,0.2-0.8c0-0.3-0.1-0.6-0.2-0.7s-0.4-0.3-0.7-0.3
		c-0.3,0-0.5,0.1-0.7,0.2l-0.1,0.1L101.8,26.6z"/>
	<path d="M110,27.1c0,0.8-0.2,1.4-0.5,1.8s-0.8,0.6-1.4,0.6c-0.6,0-1.1-0.2-1.4-0.6s-0.5-1-0.5-1.8v-1c0-0.8,0.2-1.4,0.5-1.8
		s0.8-0.6,1.4-0.6s1.1,0.2,1.4,0.6s0.5,1,0.5,1.8V27.1z M108.9,25.9c0-0.5-0.1-0.8-0.2-1c-0.1-0.2-0.3-0.3-0.6-0.3
		c-0.3,0-0.5,0.1-0.6,0.3c-0.1,0.2-0.2,0.5-0.2,1v1.4c0,0.5,0.1,0.8,0.2,1s0.3,0.3,0.6,0.3c0.3,0,0.5-0.1,0.6-0.3
		c0.1-0.2,0.2-0.5,0.2-1V25.9z"/>
	<path d="M114.5,23.7l1.5,4.1l1.5-4.1h1.5v5.7h-1.2v-1.6l0.1-2.7l-1.5,4.2h-0.8l-1.5-4.2l0.1,2.7v1.6h-1.2v-5.7H114.5z"/>
	<path d="M123.7,27.3c0,0.7-0.1,1.2-0.4,1.6s-0.7,0.6-1.2,0.6c-0.5,0-0.8-0.2-1.1-0.5l-0.1,0.4h-1v-6h1.1v2.2c0.3-0.3,0.6-0.5,1-0.5
		c0.5,0,0.9,0.2,1.2,0.6S123.7,26.6,123.7,27.3L123.7,27.3z M122.5,27.3c0-0.4-0.1-0.7-0.2-0.9S122,26,121.7,26
		c-0.4,0-0.6,0.1-0.7,0.4v1.7c0.1,0.3,0.4,0.4,0.8,0.4c0.4,0,0.6-0.2,0.7-0.5C122.5,27.9,122.5,27.6,122.5,27.3z"/>
	<path d="M124.4,24.1c0-0.2,0.1-0.3,0.2-0.4s0.3-0.2,0.5-0.2c0.2,0,0.3,0.1,0.5,0.2c0.1,0.1,0.2,0.2,0.2,0.4c0,0.2-0.1,0.3-0.2,0.4
		c-0.1,0.1-0.3,0.2-0.5,0.2c-0.2,0-0.3-0.1-0.5-0.2C124.4,24.4,124.4,24.3,124.4,24.1z M125.6,29.4h-1.1v-4.2h1.1V29.4z"/>
	<path d="M127.8,24.1v1h0.7V26h-0.7v2.1c0,0.2,0,0.3,0.1,0.3c0.1,0.1,0.2,0.1,0.3,0.1c0.1,0,0.2,0,0.3,0v0.9
		c-0.2,0.1-0.4,0.1-0.7,0.1c-0.8,0-1.2-0.4-1.2-1.2V26h-0.6v-0.8h0.6v-1H127.8z"/>
	<path d="M129.5,29.9h-0.8l2.1-6.2h0.8L129.5,29.9z"/>
	<path d="M134.5,28.2c0-0.1-0.1-0.2-0.2-0.3s-0.4-0.2-0.7-0.2c-1-0.2-1.5-0.6-1.5-1.3c0-0.4,0.2-0.7,0.5-0.9
		c0.3-0.3,0.7-0.4,1.2-0.4c0.5,0,1,0.1,1.3,0.4c0.3,0.3,0.5,0.6,0.5,1h-1.1c0-0.2-0.1-0.3-0.2-0.4c-0.1-0.1-0.3-0.2-0.5-0.2
		c-0.2,0-0.3,0-0.4,0.1c-0.1,0.1-0.2,0.2-0.2,0.3c0,0.1,0.1,0.2,0.2,0.3c0.1,0.1,0.3,0.1,0.6,0.2s0.5,0.1,0.7,0.2
		c0.6,0.2,0.9,0.6,0.9,1.1c0,0.4-0.2,0.7-0.5,0.9c-0.3,0.2-0.8,0.4-1.3,0.4c-0.4,0-0.7-0.1-0.9-0.2c-0.3-0.1-0.5-0.3-0.6-0.5
		s-0.2-0.5-0.2-0.7h1.1c0,0.2,0.1,0.4,0.2,0.5c0.1,0.1,0.3,0.2,0.6,0.2c0.2,0,0.4,0,0.5-0.1C134.4,28.5,134.5,28.4,134.5,28.2z"/>
</g>
<g class="st1">
	<path d="M4.1,7.2C4.1,7.5,4,7.8,3.9,8S3.6,8.4,3.3,8.5C3.6,8.6,3.8,8.8,4,9s0.2,0.5,0.2,0.8c0,0.5-0.2,0.9-0.5,1.2
		s-0.8,0.4-1.4,0.4S1.2,11.3,0.9,11s-0.5-0.7-0.5-1.2c0-0.3,0.1-0.6,0.2-0.8S1,8.6,1.3,8.5C1,8.4,0.8,8.2,0.7,8S0.5,7.5,0.5,7.2
		c0-0.5,0.2-0.9,0.5-1.2s0.8-0.4,1.3-0.4c0.6,0,1,0.1,1.3,0.4S4.1,6.7,4.1,7.2z M3.1,9.8c0-0.2-0.1-0.4-0.2-0.6S2.5,9,2.3,9
		C2,9,1.9,9,1.7,9.2S1.5,9.5,1.5,9.8c0,0.2,0.1,0.4,0.2,0.6s0.3,0.2,0.6,0.2c0.2,0,0.4-0.1,0.6-0.2S3.1,10,3.1,9.8z M3,7.3
		c0-0.2-0.1-0.4-0.2-0.5S2.5,6.6,2.3,6.6c-0.2,0-0.4,0.1-0.5,0.2S1.6,7.1,1.6,7.3c0,0.2,0.1,0.4,0.2,0.5S2.1,8,2.3,8S2.7,8,2.8,7.8
		S3,7.5,3,7.3z"/>
	<path d="M8.8,9.1c0,0.8-0.2,1.4-0.5,1.8s-0.8,0.6-1.4,0.6c-0.6,0-1.1-0.2-1.4-0.6S5,9.9,5,9.1v-1c0-0.8,0.2-1.4,0.5-1.8
		s0.8-0.6,1.4-0.6S8,5.8,8.3,6.3s0.5,1,0.5,1.8V9.1z M7.7,7.9c0-0.5-0.1-0.8-0.2-1C7.4,6.7,7.2,6.6,6.9,6.6c-0.3,0-0.5,0.1-0.6,0.3
		c-0.1,0.2-0.2,0.5-0.2,1v1.4c0,0.5,0.1,0.8,0.2,1s0.3,0.3,0.6,0.3c0.3,0,0.5-0.1,0.6-0.3c0.1-0.2,0.2-0.5,0.2-1V7.9z"/>
	<path d="M13.5,11.4H9.6v-0.8l1.8-2C11.7,8.4,11.8,8.2,12,8s0.2-0.4,0.2-0.6c0-0.3-0.1-0.5-0.2-0.6s-0.3-0.2-0.5-0.2
		c-0.3,0-0.5,0.1-0.6,0.3s-0.2,0.4-0.2,0.7H9.5c0-0.3,0.1-0.7,0.2-0.9s0.4-0.5,0.7-0.7s0.6-0.2,1-0.2c0.6,0,1,0.1,1.4,0.4
		s0.5,0.7,0.5,1.2c0,0.3-0.1,0.6-0.2,0.9s-0.4,0.6-0.8,1L11,10.5h2.4V11.4z"/>
	<path d="M14.3,10.9c0-0.2,0.1-0.3,0.2-0.4s0.3-0.2,0.5-0.2c0.2,0,0.3,0.1,0.5,0.2s0.2,0.3,0.2,0.4c0,0.2-0.1,0.3-0.2,0.4
		s-0.3,0.2-0.5,0.2c-0.2,0-0.3-0.1-0.5-0.2S14.3,11,14.3,10.9z"/>
	<path d="M19.2,11.4h-1.1V7.1l-1.3,0.4V6.6l2.4-0.8h0.1V11.4z"/>
	<path d="M23.8,11.4h-1.1V7.1l-1.3,0.4V6.6l2.4-0.8h0.1V11.4z"/>
	<path d="M28.2,11.4c-0.1-0.1-0.1-0.2-0.1-0.4c-0.3,0.3-0.6,0.5-1.1,0.5c-0.4,0-0.8-0.1-1-0.4s-0.4-0.5-0.4-0.9c0-0.4,0.2-0.8,0.5-1
		s0.8-0.4,1.4-0.4H28V8.6c0-0.2-0.1-0.4-0.2-0.5s-0.3-0.2-0.5-0.2c-0.2,0-0.3,0-0.4,0.1s-0.2,0.2-0.2,0.4h-1.1
		c0-0.2,0.1-0.5,0.2-0.7s0.4-0.4,0.6-0.5s0.6-0.2,0.9-0.2c0.5,0,0.9,0.1,1.2,0.4s0.5,0.6,0.5,1.1v1.8c0,0.4,0.1,0.7,0.2,0.9v0.1
		H28.2z M27.2,10.6c0.2,0,0.3,0,0.5-0.1s0.2-0.2,0.3-0.3V9.5h-0.4c-0.6,0-0.9,0.2-0.9,0.6l0,0.1c0,0.1,0,0.3,0.1,0.3
		S27.1,10.6,27.2,10.6z"/>
	<path d="M31.8,10.6c0.2,0,0.4-0.1,0.5-0.2s0.2-0.3,0.2-0.5h1.1c0,0.3-0.1,0.5-0.2,0.8s-0.4,0.4-0.6,0.6s-0.6,0.2-0.9,0.2
		c-0.6,0-1.1-0.2-1.4-0.6s-0.5-0.9-0.5-1.6V9.2c0-0.7,0.2-1.2,0.5-1.6s0.8-0.6,1.4-0.6c0.5,0,1,0.2,1.3,0.5s0.5,0.7,0.5,1.2h-1.1
		c0-0.2-0.1-0.4-0.2-0.5S32,8,31.7,8c-0.3,0-0.5,0.1-0.6,0.3c-0.1,0.2-0.2,0.5-0.2,0.9v0.1c0,0.4,0.1,0.7,0.2,0.9
		S31.5,10.6,31.8,10.6z"/>
</g>
<g class="st1">
	<path d="M4.1,25.2c0,0.3-0.1,0.5-0.2,0.7s-0.3,0.4-0.6,0.5C3.6,26.6,3.8,26.8,4,27s0.2,0.5,0.2,0.8c0,0.5-0.2,0.9-0.5,1.2
		s-0.8,0.4-1.4,0.4S1.2,29.3,0.9,29s-0.5-0.7-0.5-1.2c0-0.3,0.1-0.6,0.2-0.8s0.4-0.4,0.7-0.5C1,26.4,0.8,26.2,0.7,26
		s-0.2-0.5-0.2-0.7c0-0.5,0.2-0.9,0.5-1.2s0.8-0.4,1.3-0.4c0.6,0,1,0.1,1.3,0.4S4.1,24.7,4.1,25.2z M3.1,27.8c0-0.2-0.1-0.4-0.2-0.6
		S2.5,27,2.3,27C2,27,1.9,27,1.7,27.2s-0.2,0.3-0.2,0.6c0,0.2,0.1,0.4,0.2,0.6s0.3,0.2,0.6,0.2c0.2,0,0.4-0.1,0.6-0.2
		S3.1,28,3.1,27.8z M3,25.3c0-0.2-0.1-0.4-0.2-0.5s-0.3-0.2-0.5-0.2c-0.2,0-0.4,0.1-0.5,0.2s-0.2,0.3-0.2,0.5c0,0.2,0.1,0.4,0.2,0.5
		S2.1,26,2.3,26s0.4-0.1,0.5-0.2S3,25.5,3,25.3z"/>
	<path d="M8.8,27.1c0,0.8-0.2,1.4-0.5,1.8s-0.8,0.6-1.4,0.6c-0.6,0-1.1-0.2-1.4-0.6S5,27.9,5,27.1v-1c0-0.8,0.2-1.4,0.5-1.8
		s0.8-0.6,1.4-0.6s1.1,0.2,1.4,0.6s0.5,1,0.5,1.8V27.1z M7.7,25.9c0-0.5-0.1-0.8-0.2-1c-0.1-0.2-0.3-0.3-0.6-0.3
		c-0.3,0-0.5,0.1-0.6,0.3c-0.1,0.2-0.2,0.5-0.2,1v1.4c0,0.5,0.1,0.8,0.2,1s0.3,0.3,0.6,0.3c0.3,0,0.5-0.1,0.6-0.3
		c0.1-0.2,0.2-0.5,0.2-1V25.9z"/>
	<path d="M13.5,29.4H9.6v-0.8l1.8-2c0.3-0.3,0.4-0.5,0.6-0.7s0.2-0.4,0.2-0.6c0-0.3-0.1-0.5-0.2-0.6s-0.3-0.2-0.5-0.2
		c-0.3,0-0.5,0.1-0.6,0.3s-0.2,0.4-0.2,0.7H9.5c0-0.3,0.1-0.7,0.2-0.9s0.4-0.5,0.7-0.7s0.6-0.2,1-0.2c0.6,0,1,0.1,1.4,0.4
		s0.5,0.7,0.5,1.2c0,0.3-0.1,0.6-0.2,0.9s-0.4,0.6-0.8,1L11,28.5h2.4V29.4z"/>
	<path d="M14.3,28.9c0-0.2,0.1-0.3,0.2-0.4s0.3-0.2,0.5-0.2c0.2,0,0.3,0.1,0.5,0.2s0.2,0.3,0.2,0.4c0,0.2-0.1,0.3-0.2,0.4
		s-0.3,0.2-0.5,0.2c-0.2,0-0.3-0.1-0.5-0.2S14.3,29,14.3,28.9z"/>
	<path d="M19.2,29.4h-1.1v-4.4l-1.3,0.4v-0.9l2.4-0.8h0.1V29.4z"/>
	<path d="M23.8,29.4h-1.1v-4.4l-1.3,0.4v-0.9l2.4-0.8h0.1V29.4z"/>
	<path d="M26.7,25.2l0,0.5c0.3-0.4,0.7-0.6,1.2-0.6c0.4,0,0.8,0.1,1,0.4s0.3,0.7,0.3,1.2v2.7h-1.1v-2.7c0-0.2-0.1-0.4-0.2-0.5
		S27.8,26,27.5,26c-0.3,0-0.6,0.1-0.7,0.4v3h-1.1v-4.2H26.7z"/>
</g>
<rect x="38.2" y="18.4" class="st2" width="54.5" height="16.3"/>
<line class="st3" x1="37.7" y1="36" x2="37.7" y2="0"/>
<g class="st1">
	<path d="M203.1,11.4H202V7.1l-1.3,0.4V6.6l2.4-0.8h0.1V11.4z"/>
	<path d="M206.1,8.1h0.6c0.3,0,0.5-0.1,0.6-0.2c0.1-0.1,0.2-0.3,0.2-0.6c0-0.2-0.1-0.4-0.2-0.5s-0.3-0.2-0.6-0.2
		c-0.2,0-0.4,0.1-0.5,0.2C206.1,6.9,206,7,206,7.2h-1.1c0-0.3,0.1-0.6,0.2-0.8s0.4-0.4,0.7-0.6c0.3-0.1,0.6-0.2,1-0.2
		c0.6,0,1.1,0.1,1.4,0.4c0.3,0.3,0.5,0.7,0.5,1.2c0,0.3-0.1,0.5-0.2,0.7c-0.2,0.2-0.4,0.4-0.6,0.5c0.3,0.1,0.6,0.3,0.7,0.5
		c0.2,0.2,0.2,0.5,0.2,0.8c0,0.5-0.2,0.9-0.6,1.2c-0.4,0.3-0.9,0.5-1.5,0.5c-0.6,0-1-0.1-1.4-0.4c-0.4-0.3-0.5-0.7-0.5-1.2h1.1
		c0,0.2,0.1,0.4,0.2,0.5s0.4,0.2,0.6,0.2c0.3,0,0.5-0.1,0.6-0.2s0.2-0.3,0.2-0.6c0-0.6-0.3-0.9-0.9-0.9h-0.6V8.1z"/>
	<path d="M213.4,9.1c0,0.8-0.2,1.4-0.5,1.8c-0.3,0.4-0.8,0.6-1.4,0.6c-0.6,0-1.1-0.2-1.4-0.6s-0.5-1-0.5-1.8v-1
		c0-0.8,0.2-1.4,0.5-1.8c0.3-0.4,0.8-0.6,1.4-0.6c0.6,0,1.1,0.2,1.4,0.6s0.5,1,0.5,1.8V9.1z M212.3,7.9c0-0.5-0.1-0.8-0.2-1
		c-0.1-0.2-0.3-0.3-0.6-0.3c-0.3,0-0.5,0.1-0.6,0.3c-0.1,0.2-0.2,0.5-0.2,1v1.4c0,0.5,0.1,0.8,0.2,1c0.1,0.2,0.3,0.3,0.6,0.3
		c0.3,0,0.5-0.1,0.6-0.3c0.1-0.2,0.2-0.5,0.2-1V7.9z"/>
	<path d="M218,9.1c0,0.8-0.2,1.4-0.5,1.8c-0.3,0.4-0.8,0.6-1.4,0.6c-0.6,0-1.1-0.2-1.4-0.6s-0.5-1-0.5-1.8v-1c0-0.8,0.2-1.4,0.5-1.8
		c0.3-0.4,0.8-0.6,1.4-0.6c0.6,0,1.1,0.2,1.4,0.6s0.5,1,0.5,1.8V9.1z M216.8,7.9c0-0.5-0.1-0.8-0.2-1c-0.1-0.2-0.3-0.3-0.6-0.3
		c-0.3,0-0.5,0.1-0.6,0.3c-0.1,0.2-0.2,0.5-0.2,1v1.4c0,0.5,0.1,0.8,0.2,1c0.1,0.2,0.3,0.3,0.6,0.3c0.3,0,0.5-0.1,0.6-0.3
		c0.1-0.2,0.2-0.5,0.2-1V7.9z"/>
	<path d="M222.4,5.7l1.5,4.1l1.5-4.1h1.5v5.7h-1.2V9.9l0.1-2.7l-1.5,4.2h-0.8l-1.5-4.2l0.1,2.7v1.6h-1.2V5.7H222.4z"/>
	<path d="M231.6,9.3c0,0.7-0.1,1.2-0.4,1.6s-0.7,0.6-1.2,0.6c-0.5,0-0.8-0.2-1.1-0.5l-0.1,0.4h-1v-6h1.1v2.2c0.3-0.3,0.6-0.5,1-0.5
		c0.5,0,0.9,0.2,1.2,0.6S231.6,8.6,231.6,9.3L231.6,9.3z M230.5,9.3c0-0.4-0.1-0.7-0.2-0.9c-0.1-0.2-0.3-0.3-0.6-0.3
		c-0.4,0-0.6,0.1-0.7,0.4v1.7c0.1,0.3,0.4,0.4,0.8,0.4c0.4,0,0.6-0.2,0.7-0.5C230.4,9.9,230.5,9.6,230.5,9.3z"/>
	<path d="M232.3,6.1c0-0.2,0.1-0.3,0.2-0.4s0.3-0.2,0.5-0.2c0.2,0,0.3,0.1,0.5,0.2c0.1,0.1,0.2,0.2,0.2,0.4c0,0.2-0.1,0.3-0.2,0.4
		c-0.1,0.1-0.3,0.2-0.5,0.2c-0.2,0-0.3-0.1-0.5-0.2C232.3,6.4,232.3,6.3,232.3,6.1z M233.5,11.4h-1.1V7.2h1.1V11.4z"/>
	<path d="M235.8,6.1v1h0.7V8h-0.7v2.1c0,0.2,0,0.3,0.1,0.3c0.1,0.1,0.2,0.1,0.3,0.1c0.1,0,0.2,0,0.3,0v0.9c-0.2,0.1-0.4,0.1-0.7,0.1
		c-0.8,0-1.2-0.4-1.2-1.2V8H234V7.2h0.6v-1H235.8z"/>
	<path d="M237.5,11.9h-0.8l2.1-6.2h0.8L237.5,11.9z"/>
	<path d="M242.4,10.2c0-0.1-0.1-0.2-0.2-0.3s-0.4-0.2-0.7-0.2c-1-0.2-1.5-0.6-1.5-1.3c0-0.4,0.2-0.7,0.5-0.9
		c0.3-0.3,0.7-0.4,1.2-0.4c0.5,0,1,0.1,1.3,0.4c0.3,0.3,0.5,0.6,0.5,1h-1.1c0-0.2-0.1-0.3-0.2-0.4c-0.1-0.1-0.3-0.2-0.5-0.2
		c-0.2,0-0.3,0-0.4,0.1c-0.1,0.1-0.2,0.2-0.2,0.3c0,0.1,0.1,0.2,0.2,0.3c0.1,0.1,0.3,0.1,0.6,0.2s0.5,0.1,0.7,0.2
		c0.6,0.2,0.9,0.6,0.9,1.1c0,0.4-0.2,0.7-0.5,0.9c-0.3,0.2-0.8,0.4-1.3,0.4c-0.4,0-0.7-0.1-0.9-0.2c-0.3-0.1-0.5-0.3-0.6-0.5
		s-0.2-0.5-0.2-0.7h1.1c0,0.2,0.1,0.4,0.2,0.5c0.1,0.1,0.3,0.2,0.6,0.2c0.2,0,0.4,0,0.5-0.1C242.3,10.5,242.4,10.4,242.4,10.2z"/>
</g>
</svg>
