<?xml version="1.0" encoding="utf-8"?>
<!-- Generator: Adobe Illustrator 23.0.6, SVG Export Plug-In . SVG Version: 6.00 Build 0)  -->
<svg version="1.1" id="Vrstva_1" xmlns="http://www.w3.org/2000/svg" xmlns:xlink="http://www.w3.org/1999/xlink" x="0px" y="0px"
	 viewBox="0 0 243.8 36" style="enable-background:new 0 0 243.8 36;" xml:space="preserve">
<style type="text/css">
	.st0{fill:url(#SVGID_1_);}
	.st1{fill:#646464;}
	.st2{enable-background:new    ;}
	.st3{fill:none;stroke:#000000;}
</style>
<title>_assets_rgb</title>
<linearGradient id="SVGID_1_" gradientUnits="userSpaceOnUse" x1="38.15" y1="27.3148" x2="196.01" y2="27.3148" gradientTransform="matrix(1 0 0 -1 0 35.8898)">
	<stop  offset="0" style="stop-color:#00A2E2;stop-opacity:0.65"/>
	<stop  offset="1" style="stop-color:#00A2E2"/>
</linearGradient>
<rect x="38.2" y="0.4" class="st0" width="157.9" height="16.3"/>
<rect x="38.2" y="18.4" class="st1" width="15" height="16.3"/>
<g class="st2">
	<path d="M4.8,5.7v3.7c0,0.6-0.2,1.1-0.6,1.5s-0.9,0.5-1.6,0.5c-0.7,0-1.2-0.2-1.6-0.5s-0.6-0.8-0.6-1.4V5.7h1.2v3.8
		c0,0.4,0.1,0.6,0.3,0.8s0.4,0.3,0.7,0.3c0.7,0,1-0.3,1-1V5.7H4.8z"/>
	<path d="M8.7,9.9c0-0.2-0.1-0.4-0.2-0.5S8.1,9.2,7.6,9s-0.7-0.3-1-0.4c-0.6-0.3-1-0.8-1-1.4c0-0.3,0.1-0.6,0.3-0.8S6.4,6,6.7,5.8
		s0.7-0.2,1.1-0.2c0.4,0,0.8,0.1,1.1,0.2s0.6,0.4,0.7,0.6s0.3,0.6,0.3,0.9H8.7c0-0.3-0.1-0.5-0.2-0.6S8.1,6.6,7.8,6.6
		c-0.3,0-0.5,0.1-0.7,0.2S6.9,7,6.9,7.2c0,0.2,0.1,0.3,0.3,0.5S7.6,7.9,8,8.1c0.7,0.2,1.2,0.4,1.5,0.7s0.5,0.7,0.5,1.1
		c0,0.5-0.2,0.9-0.6,1.2s-0.9,0.4-1.5,0.4c-0.4,0-0.8-0.1-1.2-0.2S6,10.9,5.8,10.6s-0.3-0.6-0.3-1h1.2c0,0.6,0.4,0.9,1.1,0.9
		c0.3,0,0.5-0.1,0.7-0.2S8.7,10.1,8.7,9.9z"/>
	<path d="M10.7,11.4V5.7h2c0.7,0,1.2,0.1,1.6,0.4s0.5,0.7,0.5,1.2c0,0.3-0.1,0.5-0.2,0.7S14.2,8.4,14,8.5c0.3,0.1,0.5,0.2,0.7,0.4
		s0.3,0.5,0.3,0.8c0,0.5-0.2,1-0.5,1.2s-0.8,0.4-1.5,0.4H10.7z M11.9,8.1h0.9c0.6,0,0.9-0.2,0.9-0.7c0-0.3-0.1-0.4-0.2-0.6
		S13,6.7,12.7,6.7h-0.8V8.1z M11.9,8.9v1.5h1c0.3,0,0.5-0.1,0.6-0.2s0.2-0.3,0.2-0.5c0-0.5-0.3-0.8-0.8-0.8H11.9z"/>
	<path d="M18.8,8.1h0.6c0.3,0,0.5-0.1,0.6-0.2s0.2-0.3,0.2-0.6c0-0.2-0.1-0.4-0.2-0.5s-0.3-0.2-0.6-0.2c-0.2,0-0.4,0.1-0.5,0.2
		S18.7,7,18.7,7.2h-1.1c0-0.3,0.1-0.6,0.2-0.8s0.4-0.4,0.7-0.6s0.6-0.2,1-0.2c0.6,0,1.1,0.1,1.4,0.4s0.5,0.7,0.5,1.2
		c0,0.3-0.1,0.5-0.2,0.7s-0.4,0.4-0.6,0.5c0.3,0.1,0.6,0.3,0.7,0.5s0.2,0.5,0.2,0.8c0,0.5-0.2,0.9-0.6,1.2s-0.9,0.5-1.5,0.5
		c-0.6,0-1-0.1-1.4-0.4s-0.5-0.7-0.5-1.2h1.1c0,0.2,0.1,0.4,0.2,0.5s0.4,0.2,0.6,0.2c0.3,0,0.5-0.1,0.6-0.2s0.2-0.3,0.2-0.6
		c0-0.6-0.3-0.9-0.9-0.9h-0.6V8.1z"/>
	<path d="M22.4,10.9c0-0.2,0.1-0.3,0.2-0.4s0.3-0.2,0.5-0.2c0.2,0,0.3,0.1,0.5,0.2s0.2,0.3,0.2,0.4c0,0.2-0.1,0.3-0.2,0.4
		s-0.3,0.2-0.5,0.2c-0.2,0-0.3-0.1-0.5-0.2S22.4,11,22.4,10.9z"/>
	<path d="M28.4,9.1c0,0.8-0.2,1.4-0.5,1.8s-0.8,0.6-1.4,0.6c-0.6,0-1.1-0.2-1.4-0.6s-0.5-1-0.5-1.8v-1c0-0.8,0.2-1.4,0.5-1.8
		s0.8-0.6,1.4-0.6s1.1,0.2,1.4,0.6s0.5,1,0.5,1.8V9.1z M27.3,7.9c0-0.5-0.1-0.8-0.2-1c-0.1-0.2-0.3-0.3-0.6-0.3
		c-0.3,0-0.5,0.1-0.6,0.3c-0.1,0.2-0.2,0.5-0.2,1v1.4c0,0.5,0.1,0.8,0.2,1s0.3,0.3,0.6,0.3c0.3,0,0.5-0.1,0.6-0.3
		c0.1-0.2,0.2-0.5,0.2-1V7.9z"/>
</g>
<g class="st2">
	<path d="M4.8,23.7v3.7c0,0.6-0.2,1.1-0.6,1.5s-0.9,0.5-1.6,0.5c-0.7,0-1.2-0.2-1.6-0.5s-0.6-0.8-0.6-1.4v-3.8h1.2v3.8
		c0,0.4,0.1,0.6,0.3,0.8s0.4,0.3,0.7,0.3c0.7,0,1-0.3,1-1v-3.8H4.8z"/>
	<path d="M8.7,27.9c0-0.2-0.1-0.4-0.2-0.5S8.1,27.2,7.6,27s-0.7-0.3-1-0.4c-0.6-0.3-1-0.8-1-1.4c0-0.3,0.1-0.6,0.3-0.8
		s0.4-0.4,0.7-0.6s0.7-0.2,1.1-0.2c0.4,0,0.8,0.1,1.1,0.2s0.6,0.4,0.7,0.6s0.3,0.6,0.3,0.9H8.7c0-0.3-0.1-0.5-0.2-0.6
		s-0.4-0.2-0.7-0.2c-0.3,0-0.5,0.1-0.7,0.2S6.9,25,6.9,25.2c0,0.2,0.1,0.3,0.3,0.5s0.5,0.2,0.8,0.4c0.7,0.2,1.2,0.4,1.5,0.7
		s0.5,0.7,0.5,1.1c0,0.5-0.2,0.9-0.6,1.2s-0.9,0.4-1.5,0.4c-0.4,0-0.8-0.1-1.2-0.2S6,28.9,5.8,28.6s-0.3-0.6-0.3-1h1.2
		c0,0.6,0.4,0.9,1.1,0.9c0.3,0,0.5-0.1,0.7-0.2S8.7,28.1,8.7,27.9z"/>
	<path d="M10.7,29.4v-5.7h2c0.7,0,1.2,0.1,1.6,0.4s0.5,0.7,0.5,1.2c0,0.3-0.1,0.5-0.2,0.7s-0.3,0.4-0.6,0.5c0.3,0.1,0.5,0.2,0.7,0.4
		s0.3,0.5,0.3,0.8c0,0.5-0.2,1-0.5,1.2s-0.8,0.4-1.5,0.4H10.7z M11.9,26.1h0.9c0.6,0,0.9-0.2,0.9-0.7c0-0.3-0.1-0.4-0.2-0.6
		s-0.4-0.2-0.7-0.2h-0.8V26.1z M11.9,26.9v1.5h1c0.3,0,0.5-0.1,0.6-0.2s0.2-0.3,0.2-0.5c0-0.5-0.3-0.8-0.8-0.8H11.9z"/>
	<path d="M21.6,29.4h-3.9v-0.8l1.8-2c0.3-0.3,0.4-0.5,0.6-0.7s0.2-0.4,0.2-0.6c0-0.3-0.1-0.5-0.2-0.6s-0.3-0.2-0.5-0.2
		c-0.3,0-0.5,0.1-0.6,0.3s-0.2,0.4-0.2,0.7h-1.1c0-0.3,0.1-0.7,0.2-0.9s0.4-0.5,0.7-0.7s0.6-0.2,1-0.2c0.6,0,1,0.1,1.4,0.4
		s0.5,0.7,0.5,1.2c0,0.3-0.1,0.6-0.2,0.9s-0.4,0.6-0.8,1l-1.3,1.4h2.4V29.4z"/>
	<path d="M22.4,28.9c0-0.2,0.1-0.3,0.2-0.4s0.3-0.2,0.5-0.2c0.2,0,0.3,0.1,0.5,0.2s0.2,0.3,0.2,0.4c0,0.2-0.1,0.3-0.2,0.4
		s-0.3,0.2-0.5,0.2c-0.2,0-0.3-0.1-0.5-0.2S22.4,29,22.4,28.9z"/>
	<path d="M28.4,27.1c0,0.8-0.2,1.4-0.5,1.8s-0.8,0.6-1.4,0.6c-0.6,0-1.1-0.2-1.4-0.6s-0.5-1-0.5-1.8v-1c0-0.8,0.2-1.4,0.5-1.8
		s0.8-0.6,1.4-0.6s1.1,0.2,1.4,0.6s0.5,1,0.5,1.8V27.1z M27.3,25.9c0-0.5-0.1-0.8-0.2-1c-0.1-0.2-0.3-0.3-0.6-0.3
		c-0.3,0-0.5,0.1-0.6,0.3c-0.1,0.2-0.2,0.5-0.2,1v1.4c0,0.5,0.1,0.8,0.2,1s0.3,0.3,0.6,0.3c0.3,0,0.5-0.1,0.6-0.3
		c0.1-0.2,0.2-0.5,0.2-1V25.9z"/>
</g>
<g class="st2">
	<path d="M60.9,27.3h0.6v0.9h-0.6v1.2h-1.1v-1.2h-2.3l-0.1-0.7l2.4-3.7h1.1V27.3z M58.5,27.3h1.3v-2l-0.1,0.1L58.5,27.3z"/>
	<path d="M65.8,25.2c0,0.3-0.1,0.5-0.2,0.7s-0.3,0.4-0.6,0.5c0.3,0.1,0.5,0.3,0.7,0.5s0.2,0.5,0.2,0.8c0,0.5-0.2,0.9-0.5,1.2
		s-0.8,0.4-1.4,0.4S63,29.3,62.6,29s-0.5-0.7-0.5-1.2c0-0.3,0.1-0.6,0.2-0.8s0.4-0.4,0.7-0.5c-0.2-0.1-0.4-0.3-0.6-0.5
		s-0.2-0.5-0.2-0.7c0-0.5,0.2-0.9,0.5-1.2s0.8-0.4,1.3-0.4c0.6,0,1,0.1,1.3,0.4S65.8,24.7,65.8,25.2z M64.8,27.8
		c0-0.2-0.1-0.4-0.2-0.6S64.2,27,64,27c-0.2,0-0.4,0.1-0.6,0.2s-0.2,0.3-0.2,0.6c0,0.2,0.1,0.4,0.2,0.6s0.3,0.2,0.6,0.2
		c0.2,0,0.4-0.1,0.6-0.2S64.8,28,64.8,27.8z M64.7,25.3c0-0.2-0.1-0.4-0.2-0.5s-0.3-0.2-0.5-0.2c-0.2,0-0.4,0.1-0.5,0.2
		s-0.2,0.3-0.2,0.5c0,0.2,0.1,0.4,0.2,0.5S63.8,26,64,26s0.4-0.1,0.5-0.2S64.7,25.5,64.7,25.3z"/>
	<path d="M70.5,27.1c0,0.8-0.2,1.4-0.5,1.8s-0.8,0.6-1.4,0.6c-0.6,0-1.1-0.2-1.4-0.6s-0.5-1-0.5-1.8v-1c0-0.8,0.2-1.4,0.5-1.8
		s0.8-0.6,1.4-0.6s1.1,0.2,1.4,0.6s0.5,1,0.5,1.8V27.1z M69.4,25.9c0-0.5-0.1-0.8-0.2-1c-0.1-0.2-0.3-0.3-0.6-0.3
		c-0.3,0-0.5,0.1-0.6,0.3c-0.1,0.2-0.2,0.5-0.2,1v1.4c0,0.5,0.1,0.8,0.2,1s0.3,0.3,0.6,0.3c0.3,0,0.5-0.1,0.6-0.3
		c0.1-0.2,0.2-0.5,0.2-1V25.9z"/>
	<path d="M74.9,23.7l1.5,4.1l1.5-4.1h1.5v5.7h-1.2v-1.6l0.1-2.7l-1.5,4.2H76l-1.5-4.2l0.1,2.7v1.6h-1.2v-5.7H74.9z"/>
	<path d="M84.1,27.3c0,0.7-0.1,1.2-0.4,1.6s-0.7,0.6-1.2,0.6c-0.5,0-0.8-0.2-1.1-0.5l-0.1,0.4h-1v-6h1.1v2.2c0.3-0.3,0.6-0.5,1-0.5
		c0.5,0,0.9,0.2,1.2,0.6S84.1,26.6,84.1,27.3L84.1,27.3z M83,27.3c0-0.4-0.1-0.7-0.2-0.9S82.5,26,82.2,26c-0.4,0-0.6,0.1-0.7,0.4
		v1.7c0.1,0.3,0.4,0.4,0.8,0.4c0.4,0,0.6-0.2,0.7-0.5C83,27.9,83,27.6,83,27.3z"/>
	<path d="M84.8,24.1c0-0.2,0.1-0.3,0.2-0.4s0.3-0.2,0.5-0.2c0.2,0,0.3,0.1,0.5,0.2s0.2,0.2,0.2,0.4c0,0.2-0.1,0.3-0.2,0.4
		s-0.3,0.2-0.5,0.2s-0.3-0.1-0.5-0.2S84.8,24.3,84.8,24.1z M86,29.4h-1.1v-4.2H86V29.4z"/>
	<path d="M88.3,24.1v1H89V26h-0.7v2.1c0,0.2,0,0.3,0.1,0.3s0.2,0.1,0.3,0.1c0.1,0,0.2,0,0.3,0v0.9c-0.2,0.1-0.4,0.1-0.7,0.1
		c-0.8,0-1.2-0.4-1.2-1.2V26h-0.6v-0.8h0.6v-1H88.3z"/>
	<path d="M90,29.9h-0.8l2.1-6.2h0.8L90,29.9z"/>
	<path d="M94.9,28.2c0-0.1-0.1-0.2-0.2-0.3s-0.4-0.2-0.7-0.2c-1-0.2-1.5-0.6-1.5-1.3c0-0.4,0.2-0.7,0.5-0.9s0.7-0.4,1.2-0.4
		c0.5,0,1,0.1,1.3,0.4s0.5,0.6,0.5,1h-1.1c0-0.2-0.1-0.3-0.2-0.4s-0.3-0.2-0.5-0.2c-0.2,0-0.3,0-0.4,0.1s-0.2,0.2-0.2,0.3
		c0,0.1,0.1,0.2,0.2,0.3s0.3,0.1,0.6,0.2s0.5,0.1,0.7,0.2c0.6,0.2,0.9,0.6,0.9,1.1c0,0.4-0.2,0.7-0.5,0.9s-0.8,0.4-1.3,0.4
		c-0.4,0-0.7-0.1-0.9-0.2s-0.5-0.3-0.6-0.5s-0.2-0.5-0.2-0.7h1.1c0,0.2,0.1,0.4,0.2,0.5s0.3,0.2,0.6,0.2c0.2,0,0.4,0,0.5-0.1
		S94.9,28.4,94.9,28.2z"/>
</g>
<line class="st3" x1="37.7" y1="36" x2="37.7" y2="0"/>
<g class="st2">
	<path d="M200.5,8.6l0.3-2.9h3.2v0.9h-2.3l-0.1,1.2c0.3-0.1,0.6-0.2,0.9-0.2c0.5,0,1,0.2,1.3,0.5c0.3,0.3,0.5,0.8,0.5,1.4
		c0,0.4-0.1,0.7-0.2,1c-0.2,0.3-0.4,0.5-0.7,0.7s-0.6,0.2-1,0.2c-0.3,0-0.7-0.1-1-0.2c-0.3-0.1-0.5-0.3-0.7-0.6
		c-0.2-0.3-0.3-0.5-0.3-0.9h1.1c0,0.2,0.1,0.4,0.2,0.6c0.1,0.1,0.3,0.2,0.6,0.2c0.3,0,0.5-0.1,0.6-0.3c0.1-0.2,0.2-0.4,0.2-0.8
		c0-0.3-0.1-0.6-0.2-0.7c-0.2-0.2-0.4-0.3-0.7-0.3c-0.3,0-0.5,0.1-0.7,0.2l-0.1,0.1L200.5,8.6z"/>
	<path d="M208.8,9.1c0,0.8-0.2,1.4-0.5,1.8c-0.3,0.4-0.8,0.6-1.4,0.6c-0.6,0-1.1-0.2-1.4-0.6s-0.5-1-0.5-1.8v-1
		c0-0.8,0.2-1.4,0.5-1.8c0.3-0.4,0.8-0.6,1.4-0.6c0.6,0,1.1,0.2,1.4,0.6s0.5,1,0.5,1.8V9.1z M207.7,7.9c0-0.5-0.1-0.8-0.2-1
		c-0.1-0.2-0.3-0.3-0.6-0.3c-0.3,0-0.5,0.1-0.6,0.3c-0.1,0.2-0.2,0.5-0.2,1v1.4c0,0.5,0.1,0.8,0.2,1c0.1,0.2,0.3,0.3,0.6,0.3
		c0.3,0,0.5-0.1,0.6-0.3c0.1-0.2,0.2-0.5,0.2-1V7.9z"/>
	<path d="M213.4,9.1c0,0.8-0.2,1.4-0.5,1.8c-0.3,0.4-0.8,0.6-1.4,0.6c-0.6,0-1.1-0.2-1.4-0.6s-0.5-1-0.5-1.8v-1
		c0-0.8,0.2-1.4,0.5-1.8c0.3-0.4,0.8-0.6,1.4-0.6c0.6,0,1.1,0.2,1.4,0.6s0.5,1,0.5,1.8V9.1z M212.3,7.9c0-0.5-0.1-0.8-0.2-1
		c-0.1-0.2-0.3-0.3-0.6-0.3c-0.3,0-0.5,0.1-0.6,0.3c-0.1,0.2-0.2,0.5-0.2,1v1.4c0,0.5,0.1,0.8,0.2,1c0.1,0.2,0.3,0.3,0.6,0.3
		c0.3,0,0.5-0.1,0.6-0.3c0.1-0.2,0.2-0.5,0.2-1V7.9z"/>
	<path d="M218,9.1c0,0.8-0.2,1.4-0.5,1.8c-0.3,0.4-0.8,0.6-1.4,0.6c-0.6,0-1.1-0.2-1.4-0.6s-0.5-1-0.5-1.8v-1c0-0.8,0.2-1.4,0.5-1.8
		c0.3-0.4,0.8-0.6,1.4-0.6c0.6,0,1.1,0.2,1.4,0.6s0.5,1,0.5,1.8V9.1z M216.8,7.9c0-0.5-0.1-0.8-0.2-1c-0.1-0.2-0.3-0.3-0.6-0.3
		c-0.3,0-0.5,0.1-0.6,0.3c-0.1,0.2-0.2,0.5-0.2,1v1.4c0,0.5,0.1,0.8,0.2,1c0.1,0.2,0.3,0.3,0.6,0.3c0.3,0,0.5-0.1,0.6-0.3
		c0.1-0.2,0.2-0.5,0.2-1V7.9z"/>
	<path d="M222.4,5.7l1.5,4.1l1.5-4.1h1.5v5.7h-1.2V9.9l0.1-2.7l-1.5,4.2h-0.8l-1.5-4.2l0.1,2.7v1.6h-1.2V5.7H222.4z"/>
	<path d="M231.6,9.3c0,0.7-0.1,1.2-0.4,1.6s-0.7,0.6-1.2,0.6c-0.5,0-0.8-0.2-1.1-0.5l-0.1,0.4h-1v-6h1.1v2.2c0.3-0.3,0.6-0.5,1-0.5
		c0.5,0,0.9,0.2,1.2,0.6S231.6,8.6,231.6,9.3L231.6,9.3z M230.5,9.3c0-0.4-0.1-0.7-0.2-0.9c-0.1-0.2-0.3-0.3-0.6-0.3
		c-0.4,0-0.6,0.1-0.7,0.4v1.7c0.1,0.3,0.4,0.4,0.8,0.4c0.4,0,0.6-0.2,0.7-0.5C230.4,9.9,230.5,9.6,230.5,9.3z"/>
	<path d="M232.3,6.1c0-0.2,0.1-0.3,0.2-0.4s0.3-0.2,0.5-0.2c0.2,0,0.3,0.1,0.5,0.2c0.1,0.1,0.2,0.2,0.2,0.4c0,0.2-0.1,0.3-0.2,0.4
		c-0.1,0.1-0.3,0.2-0.5,0.2c-0.2,0-0.3-0.1-0.5-0.2C232.3,6.4,232.3,6.3,232.3,6.1z M233.5,11.4h-1.1V7.2h1.1V11.4z"/>
	<path d="M235.8,6.1v1h0.7V8h-0.7v2.1c0,0.2,0,0.3,0.1,0.3c0.1,0.1,0.2,0.1,0.3,0.1c0.1,0,0.2,0,0.3,0v0.9c-0.2,0.1-0.4,0.1-0.7,0.1
		c-0.8,0-1.2-0.4-1.2-1.2V8H234V7.2h0.6v-1H235.8z"/>
	<path d="M237.5,11.9h-0.8l2.1-6.2h0.8L237.5,11.9z"/>
	<path d="M242.4,10.2c0-0.1-0.1-0.2-0.2-0.3s-0.4-0.2-0.7-0.2c-1-0.2-1.5-0.6-1.5-1.3c0-0.4,0.2-0.7,0.5-0.9
		c0.3-0.3,0.7-0.4,1.2-0.4c0.5,0,1,0.1,1.3,0.4c0.3,0.3,0.5,0.6,0.5,1h-1.1c0-0.2-0.1-0.3-0.2-0.4c-0.1-0.1-0.3-0.2-0.5-0.2
		c-0.2,0-0.3,0-0.4,0.1c-0.1,0.1-0.2,0.2-0.2,0.3c0,0.1,0.1,0.2,0.2,0.3c0.1,0.1,0.3,0.1,0.6,0.2s0.5,0.1,0.7,0.2
		c0.6,0.2,0.9,0.6,0.9,1.1c0,0.4-0.2,0.7-0.5,0.9c-0.3,0.2-0.8,0.4-1.3,0.4c-0.4,0-0.7-0.1-0.9-0.2c-0.3-0.1-0.5-0.3-0.6-0.5
		s-0.2-0.5-0.2-0.7h1.1c0,0.2,0.1,0.4,0.2,0.5c0.1,0.1,0.3,0.2,0.6,0.2c0.2,0,0.4,0,0.5-0.1C242.3,10.5,242.4,10.4,242.4,10.2z"/>
</g>
</svg>
