<svg id="Vrstva_1" data-name="Vrstva 1" xmlns="http://www.w3.org/2000/svg" viewBox="0 0 253 258"><defs><style>.cls-1{fill:#00a2e2;}</style></defs><title>ikona_pocitac</title><path class="cls-1" d="M223,69V48H134v77.19c-.28,0-.57.09-.84.15l-.28,0c-.5.11-1,.23-1.47.38l-.22.07q-.75.24-1.47.54h0c-.48.2-.94.43-1.4.67l-.2.11c-.44.24-.86.5-1.27.77l-.23.15c-.4.28-.79.57-1.17.88l-.18.15c-.39.33-.77.67-1.13,1h0c-.36.36-.71.75-1,1.14l-.14.18-.11.12-.29-.11c-.32-.15-.65-.28-1-.4l-.71-.26c-.35-.12-.71-.21-1.07-.3l-.69-.18c-.4-.09-.81-.15-1.23-.21-.2,0-.4-.07-.6-.09a16.83,16.83,0,0,0-1.89-.11h-.71A17.63,17.63,0,0,0,97.9,142.2H92v17h5.07v7.49c-.26,0-.51,0-.77,0h-.71A17.61,17.61,0,0,0,78,184H70.25v6H78v16.86C78,236.81,99.13,252,140.79,252c36.77,0,57.85-18.51,57.85-50.79V196H223V119h13V69ZM184.64,201.21c0,24.41-14.75,36.79-43.85,36.79C97.55,238,92,221.36,92,206.86v-22.6a3.64,3.64,0,0,1,3.59-3.59h.71a3.7,3.7,0,0,1,.77.09v19.75h14v-53a3.64,3.64,0,0,1,3.59-3.6h.71a3.64,3.64,0,0,1,3.59,3.6V177.2h14V142.59a3.65,3.65,0,0,1,3.6-3.59h.7a3.65,3.65,0,0,1,3.6,3.59V177.2h14V142.59a3.64,3.64,0,0,1,3.59-3.59h.71a3.65,3.65,0,0,1,3.59,3.59V177.2h14V155.31a3.65,3.65,0,0,1,3.59-3.6h.71a3.64,3.64,0,0,1,3.59,3.6v45.9ZM222,105H209v77H198.64V155.31a17.62,17.62,0,0,0-17.59-17.6h-.71c-.55,0-1.09,0-1.62.09l-.28,0c-.51.06-1,.13-1.51.23l-.29.06-.44.1c0-.17-.11-.33-.15-.5l-.18-.59c-.11-.33-.24-.66-.37-1-.06-.17-.13-.34-.2-.51-.18-.42-.38-.83-.59-1.23,0-.06-.06-.13-.1-.2-.25-.46-.53-.91-.82-1.34l-.28-.39c-.21-.3-.43-.6-.66-.88l-.37-.45c-.22-.25-.45-.5-.68-.74l-.42-.43c-.25-.23-.5-.46-.76-.68l-.43-.37c-.3-.24-.61-.47-.93-.7l-.33-.24c-.44-.29-.89-.56-1.35-.82l-.31-.15c-.37-.19-.74-.38-1.12-.54-.17-.08-.35-.14-.52-.21s-.65-.25-1-.36c-.19-.07-.38-.12-.58-.18s-.66-.18-1-.26l-.6-.13c-.36-.07-.73-.12-1.1-.17l-.53-.07c-.55,0-1.11-.08-1.67-.08h-.71c-.56,0-1.11,0-1.66.08l-.51.07c-.37,0-.75.1-1.11.17-.19,0-.38.08-.57.12l-1,.26-.53.16c-.38.13-.75.27-1.12.42l-.37.14a15.21,15.21,0,0,0-1.41.68l-.32.19c-.35.19-.69.4-1,.62-.16.1-.3.21-.45.31a4.15,4.15,0,0,0-.34.24V62h61V83h13Z"/><path class="cls-1" d="M172.36,23,161,25l-1.22.22.53,3L178,25h0L173.55,7.54l-2.91.74,3.05,12C146.08,2.64,118.5,4.22,100,8.79a112.62,112.62,0,0,0-34.86,15l1.72,2.46s.69-.48,1.9-1.23a115.14,115.14,0,0,1,32-13.3C118.71,7.26,145.54,5.73,172.36,23Z"/><rect class="cls-1" x="26.75" y="49" width="17" height="6"/><rect class="cls-1" x="95" y="72" width="17" height="6"/><rect class="cls-1" x="48.5" y="49" width="17" height="6"/><rect class="cls-1" x="70.25" y="49" width="17" height="6"/><rect class="cls-1" x="26.75" y="184" width="17" height="6"/><rect class="cls-1" x="48.5" y="184" width="17" height="6"/><rect class="cls-1" x="106" y="83.5" width="6" height="17"/><rect class="cls-1" x="92" y="49" width="6" height="17"/><rect class="cls-1" x="16" y="49" width="6" height="17"/><rect class="cls-1" x="16" y="73.8" width="6" height="17"/><rect class="cls-1" x="16" y="98.6" width="6" height="17"/><rect class="cls-1" x="16" y="123.4" width="6" height="17"/><rect class="cls-1" x="16" y="148.2" width="6" height="17"/><rect class="cls-1" x="16" y="173" width="6" height="17"/><rect class="cls-1" x="92" y="117.4" width="6" height="17"/><rect class="cls-1" x="95" y="106" width="17" height="6"/></svg>