<svg id="Vrstva_1" data-name="Vrstva 1" xmlns="http://www.w3.org/2000/svg" viewBox="0 0 32 32"><defs><style>.cls-1{fill:#fff;}</style></defs><title>_assets_rgb</title><path class="cls-1" d="M24.89,18.75a24.75,24.75,0,0,1-3.35,5.05c-.83,1-1.74,1.87-2.63,2.78S16.33,28.77,16,29a37.07,37.07,0,0,1-2.91-2.44c-.89-.91-1.8-1.81-2.63-2.77a24.68,24.68,0,0,1-3.35-5,21.48,21.48,0,0,1-1.43-3.59H3.15a1.73,1.73,0,0,0,.09.39A20.94,20.94,0,0,0,6,21.84,30.61,30.61,0,0,0,9,25.9,32.07,32.07,0,0,0,13.22,30c.59.46,2.24,1.69,2.78,2h0c.54-.35,2.19-1.57,2.78-2A32.07,32.07,0,0,0,23,25.89a28.85,28.85,0,0,0,3-4.05,20.83,20.83,0,0,0,2.73-6.29,3.72,3.72,0,0,0,.08-.37H26.31A21.76,21.76,0,0,1,24.89,18.75Z"/><path class="cls-1" d="M29.37.05,16.16,0H2.63a81.39,81.39,0,0,0-.06,10.67H4.93C4.76,6.5,5,2.6,5,2.43H27a65.65,65.65,0,0,1,0,8.24h2.44A81.79,81.79,0,0,0,29.37.05Z"/><path class="cls-1" d="M29.32,12v0h0Z"/><path class="cls-1" d="M20.84,12a4.94,4.94,0,0,0-9.69,0H2.71a11.41,11.41,0,0,0,.21,1.82h8.22a4.93,4.93,0,0,0,9.71,0h8.24c.09-.61.16-1.13.23-1.82H20.84Z"/></svg>