<svg xmlns="http://www.w3.org/2000/svg" viewBox="0 0 1353.12 332.46">
  <defs>
    <style>
      .cls-1 {
        fill: #031159;
      }
    </style>
  </defs>
  <g id="Layer_2" data-name="Layer 2">
    <g id="Layer_1-2" data-name="Layer 1">
      <path class="cls-1" d="M510.71,109a56.77,56.77,0,0,1,23.22,22.32q8.22,14.35,8.22,33.15,0,18.62-8.22,33.07a56.48,56.48,0,0,1-23.31,22.41q-15.09,8-35,8H428.13V101h47.53Q495.71,101,510.71,109ZM501,191.54q9.75-9.58,9.75-27.11T501,137.15q-9.76-9.77-27.29-9.76H459v73.73h14.64Q491.19,201.12,501,191.54Z" />
      <path class="cls-1" d="M655.45,101V227.86h-30.9V101Z" />
      <path class="cls-1" d="M825.49,101v24.75H773.81v26.75h38.67v24H773.81v51.32h-30.9V101Z" />
      <path class="cls-1" d="M937.16,101V176.9q0,11.39,5.6,17.53t16.44,6.14q10.84,0,16.63-6.14t5.78-17.53V101h30.9v75.71q0,17-7.23,28.73a46.26,46.26,0,0,1-19.42,17.71,61.07,61.07,0,0,1-27.2,6,59.48,59.48,0,0,1-26.83-5.87,43.71,43.71,0,0,1-18.7-17.71q-6.89-11.83-6.87-28.82V101Z" />
      <path class="cls-1" d="M1120.2,224.61a40.61,40.61,0,0,1-17.62-13.38q-6.58-8.85-6.95-21.32h32.88q.72,7.05,4.88,10.75t10.84,3.71q6.87,0,10.85-3.16a10.61,10.61,0,0,0,4-8.77,10.37,10.37,0,0,0-3.16-7.77,25.61,25.61,0,0,0-7.77-5.06,126.91,126.91,0,0,0-13.1-4.52,142.88,142.88,0,0,1-20.06-7.58,37,37,0,0,1-13.37-11.21q-5.6-7.4-5.6-19.33,0-17.72,12.83-27.74t33.43-10q21,0,33.79,10t13.73,27.92h-33.43a13.08,13.08,0,0,0-4.52-9.67,15.9,15.9,0,0,0-10.66-3.52,13.25,13.25,0,0,0-9,3q-3.44,3-3.44,8.58,0,6.15,5.79,9.58t18.07,7.41a166.93,166.93,0,0,1,20,8,38.05,38.05,0,0,1,13.28,11q5.61,7.23,5.61,18.61a36.56,36.56,0,0,1-5.51,19.7,38.63,38.63,0,0,1-16,14.09q-10.47,5.25-24.75,5.24A65.29,65.29,0,0,1,1120.2,224.61Z" />
      <path class="cls-1" d="M1306.32,125.76v25.66h41.38v23.86h-41.38V203.1h46.8v24.76h-77.7V101h77.7v24.75Z" />
      <polygon class="cls-1" points="369.78 166.23 273.78 332.46 82.27 332.46 0 189.99 54.78 189.99 109.62 284.97 246.39 284.97 314.97 166.23 246.39 47.49 109.62 47.49 54.78 142.47 0 142.47 82.27 0 273.78 0 369.78 166.23" />
      <polygon class="cls-1" points="219.07 94.98 136.77 94.98 109.36 142.47 191.69 142.47 205.41 166.23 191.69 189.99 109.36 189.99 136.77 237.48 219.07 237.48 260.19 166.23 219.07 94.98" />
    </g>
  </g>
</svg>