<?xml version="1.0" encoding="UTF-8"?>
<svg width="135px" height="136px" viewBox="0 0 135 136" version="1.1" xmlns="http://www.w3.org/2000/svg" xmlns:xlink="http://www.w3.org/1999/xlink">
    <!-- Generator: Sketch 53.2 (72643) - https://sketchapp.com -->
    <title>RTA500</title>
    <desc>Created with Sketch.</desc>
    <g id="Welcome" stroke="none" stroke-width="1" fill="none" fill-rule="evenodd">
        <g id="Homepage" transform="translate(-752.000000, -2661.000000)" fill="#FFFFFF" fill-rule="nonzero">
            <g id="Group-15" transform="translate(0.000000, 2569.000000)">
                <g id="Group-10">
                    <g id="Ikony_3_velke">
                        <g id="RTA500" transform="translate(752.000000, 92.000000)">
                            <path d="M67.5,0.251533742 C30.3038898,0.251533742 0,30.5554235 0,67.7515337 C0,104.947644 30.3038898,135.251534 67.5,135.251534 C104.69611,135.251534 135,104.947644 135,67.7515337 C135,30.5554235 104.805511,0.251533742 67.5,0.251533742 Z M107.540519,102.978438 L105.461912,100.899832 L100.429498,105.932247 L102.508104,108.010853 C93.6466775,115.778276 82.1596434,120.59189 69.5786062,121.029492 L69.5786062,117.747482 L62.4675851,117.747482 L62.4675851,120.920091 C50.5429498,119.826088 39.821718,114.684273 31.397893,107.02625 L33.3670989,105.057044 L28.334684,100.024629 L26.4748784,101.884435 C19.1450567,93.1324089 14.6596434,81.8641756 14.2220421,69.7207396 L18.0510535,69.7207396 L18.0510535,62.6097185 L14.4408428,62.6097185 C15.534846,51.3414851 20.23906,41.0578546 27.2406807,32.8528303 L30.1944895,35.8066391 L35.2269044,30.7742242 L32.2730956,27.8204154 C40.4781199,20.599994 50.9805511,15.7863798 62.4675851,14.6923765 L62.4675851,18.4119876 L69.5786062,18.4119876 L69.5786062,14.4735759 C81.7220421,14.9111772 92.8808752,19.5059908 101.632901,26.7264122 L98.6790924,29.6802209 L103.711507,34.7126358 L106.774716,31.6494268 C114.432739,39.9638514 119.465154,50.6850832 120.668558,62.5003182 L117.495948,62.5003182 L117.495948,69.6113393 L120.777958,69.6113393 C120.340357,82.4111772 115.417342,94.1170119 107.540519,102.978438 Z" id="Shape"></path>
                            <polygon id="Path" points="68.9756098 34.2515337 62 34.2515337 62 72.8534755 62.3219512 72.8534755 62.1073171 73.0709512 79.0634146 90.2515337 84 85.249592 68.9756098 70.026291"></polygon>
                        </g>
                    </g>
                </g>
            </g>
        </g>
    </g>
</svg>